# xmcd
#
# Track frame offsets: 
#        150
#        95276
#        160346
#        212547
#        216640
#        220383
#        223241
#        226654
#        230170
#        234582
#        239466
#        242128
#        245085
#        249760
#        252743
#        256378
#        261494
#        268004
#        270843
#        274115
#        276547
#        278796
#        282352
#        287334
#        293206
#        298504
#        304279
#        306971
#        309589
#        312774
#
# Disc length: 4462 seconds
#
# Revision: 1
# Processed by: cddbd v1.5.2PL0 Copyright (c) Steve Scherf et al.
# Submitted via: ExactAudioCopyFreeDBPlugin 1.0
#
DISCID=e8116c1e
DTITLE=Johannes Brahms (1833-1897) - Klavierkonzert Nr.I and Haendel-Var
DTITLE=iations
DYEAR=1900
DGENRE=Classical
TTITLE0=Brahms - Klavierkonzert Nr. 1 d-moll op. 15 - 1. Maestoso
TTITLE1=Brahms - Klavierkonzert Nr. 1 d-moll op. 15 - 2. Adagio
TTITLE2=Brahms - Klavierkonzert Nr. 1 d-moll op. 15 - 3. Rondo. Allegr
TTITLE2=o non troppo
TTITLE3=Brahms - Variationen und Fuge über ein Thema von Händel - Aria
TTITLE4=Brahms - Variationen und Fuge über ein Thema von Händel - Var.
TTITLE4=I
TTITLE5=Brahms - Variationen und Fuge über ein Thema von Händel - Var.
TTITLE5=II
TTITLE6=Brahms - Variationen und Fuge über ein Thema von Händel - Var.
TTITLE6=III
TTITLE7=Brahms - Variationen und Fuge über ein Thema von Händel - Var.
TTITLE7=IV - Risoluto
TTITLE8=Brahms - Variationen und Fuge über ein Thema von Händel - Var.
TTITLE8=V - Esspressivo
TTITLE9=Brahms - Variationen und Fuge über ein Thema von Händel - Var.
TTITLE9=VI
TTITLE10=Brahms - Variationen und Fuge über ein Thema von Händel - Var
TTITLE10=VII - Con Vivacita
TTITLE11=Brahms - Variationen und Fuge über ein Thema von Händel - Var
TTITLE11=VIII
TTITLE12=Brahms - Variationen und Fuge über ein Thema von Händel - Var
TTITLE12=IX - Poco sostenuto
TTITLE13=Brahms - Variationen und Fuge über ein Thema von Händel - Var
TTITLE13=X
TTITLE14=Brahms - Variationen und Fuge über ein Thema von Händel - Var
TTITLE14=XI
TTITLE15=Brahms - Variationen und Fuge über ein Thema von Händel - Var
TTITLE15=XII
TTITLE16=Brahms - Variationen und Fuge über ein Thema von Händel - Var
TTITLE16=XIII - Largamente, ma non piu
TTITLE17=Brahms - Variationen und Fuge über ein Thema von Händel - Var
TTITLE17=XIV
TTITLE18=Brahms - Variationen und Fuge über ein Thema von Händel - Var
TTITLE18=XV
TTITLE19=Brahms - Variationen und Fuge über ein Thema von Händel - Var
TTITLE19=XVI
TTITLE20=Brahms - Variationen und Fuge über ein Thema von Händel - Var
TTITLE20=XVII - Piu mosso
TTITLE21=Brahms - Variationen und Fuge über ein Thema von Händel - Var
TTITLE21=XVIII
TTITLE22=Brahms - Variationen und Fuge über ein Thema von Händel - Var
TTITLE22=XIX - Leggiero e vivace
TTITLE23=Brahms - Variationen und Fuge über ein Thema von Händel - Var
TTITLE23=XX
TTITLE24=Brahms - Variationen und Fuge über ein Thema von Händel - Var
TTITLE24=XXI
TTITLE25=Brahms - Variationen und Fuge über ein Thema von Händel - Var
TTITLE25=XXII
TTITLE26=Brahms - Variationen und Fuge über ein Thema von Händel - Var
TTITLE26=XXIII
TTITLE27=Brahms - Variationen und Fuge über ein Thema von Händel - Var
TTITLE27=XXIV
TTITLE28=Brahms - Variationen und Fuge über ein Thema von Händel - Var
TTITLE28=XXV
TTITLE29=Brahms - Variationen und Fuge über ein Thema von Händel - Fug
TTITLE29=a
EXTD=
EXTT0=
EXTT1=
EXTT2=
EXTT3=
EXTT4=
EXTT5=
EXTT6=
EXTT7=
EXTT8=
EXTT9=
EXTT10=
EXTT11=
EXTT12=
EXTT13=
EXTT14=
EXTT15=
EXTT16=
EXTT17=
EXTT18=
EXTT19=
EXTT20=
EXTT21=
EXTT22=
EXTT23=
EXTT24=
EXTT25=
EXTT26=
EXTT27=
EXTT28=
EXTT29=
PLAYORDER=
